<svg xmlns="http://www.w3.org/2000/svg" viewBox="0 0 147.27 141.63">
  <g id="Слой_2" data-name="Слой 2">
    <g id="Слой_1-2" data-name="Слой 1">
      <g>
        <path d="M88.79,113.12v11.41h2c5.38,0,10.76,0,16.14,0,4.61,0,7.7,3.07,7.58,7.67a17.91,17.91,0,0,1-1.06,5.86c-.88,2.32-3,3.3-5.44,3.45-.71,0-1.43,0-2.15,0-21.28,0-42.57-.13-63.85.08-6.37.07-9.76-2.6-9.33-9.5.18-2.89,1.1-5.19,3.62-6.54a9.25,9.25,0,0,1,4.08-1c5.32-.11,10.64,0,16,0h2.09V113.12H12.32C4.7,113.11,0,108.44,0,100.83Q0,56.52,0,12.22C0,4.49,4.53,0,12.3,0H135c7.75,0,12.27,4.5,12.27,12.24q0,44.31,0,88.61c0,7.61-4.7,12.26-12.33,12.27H88.79Zm53.75-31.18V12.33c0-5.18-2.4-7.6-7.55-7.6H12.28c-5.16,0-7.55,2.41-7.55,7.59V81.94ZM4.76,86.87c0,5.33-.07,10.47.07,15.6a6.7,6.7,0,0,0,1.36,3.23c1.48,2.18,3.73,2.73,6.28,2.73q61.16,0,122.32,0h1.07a6.78,6.78,0,0,0,6.67-6.82c0-2.69,0-5.38,0-8.07V86.87Zm69.06,42.39h-33c-2.7,0-3.38.73-3.39,3.59,0,3.33.52,4,3.34,4q32.82,0,65.64,0c2.76,0,3.43-.73,3.43-3.73s-.69-3.82-3.38-3.83ZM63.4,113.2v11.21H83.87V113.2Z"/>
        <g>
          <path d="M72.37,42.3c1.56-3.11,3-6,4.44-8.83a4.92,4.92,0,0,1,.84-1.3,2.14,2.14,0,0,1,3.31.2,8.79,8.79,0,0,1,1,1.68c2.9,5.78,5.69,11.62,8.73,17.32,1.13,2.12-.2,3.82-2.37,3.79-8.08-.08-16.17,0-24.25,0-1.7,0-3.4,0-5.09,0-2.26-.07-3.15-1.61-2.14-3.63,2.54-5.09,5.1-10.17,7.63-15.26.53-1.07,1.15-2,2.49-1.95s1.87.92,2.37,1.94C70.27,38.16,71.26,40.09,72.37,42.3Zm6.86-3.62c-1.08,2.16-1.92,4.17-3,6s-1.35,3.36-.05,5.07c.05.07.06.19.12.23.28.2.58.54.87.55,2.6,0,5.21,0,8,0ZM71.44,50.5l-4.56-9.08L62.35,50.5Z"/>
          <path d="M94.07,63.34v-10c0-1.83.74-2.79,2.15-2.83s2.41,1.08,2.42,2.79q0,5.92,0,11.86c0,2-.73,2.68-2.68,2.7q-6,0-12,0c-1.78,0-2.69-.86-2.66-2.33s.94-2.23,2.74-2.24C87.32,63.33,90.62,63.34,94.07,63.34Z"/>
          <path d="M53.38,23.13c0,3.48,0,6.74,0,10,0,1.85-.74,2.78-2.17,2.8a2.76,2.76,0,0,1-2.58-2.87c0-4,0-7.91,0-11.87a2.26,2.26,0,0,1,2.54-2.59q6.26,0,12.51,0c1.69,0,2.52.84,2.49,2.33s-.88,2.19-2.5,2.21c-2.91,0-5.82,0-8.73,0Z"/>
          <path d="M93.83,23.13H84.26a7.72,7.72,0,0,1-1.18,0,2.3,2.3,0,0,1-2-2.33,2.14,2.14,0,0,1,2.06-2.14c4.44-.05,8.87-.06,13.31,0a2,2,0,0,1,2,2.2q.07,6.39,0,12.78a2.13,2.13,0,0,1-2.3,2.29,2.21,2.21,0,0,1-2.26-2.48c0-2.91,0-5.83,0-8.74Z"/>
          <path d="M53.62,63.58h9.71a7.59,7.59,0,0,1,1.17,0,2.24,2.24,0,0,1,1.9,2.29,2,2,0,0,1-2,2.15c-4.47.06-9,0-13.43,0a1.82,1.82,0,0,1-1.87-2c0-4.44-.05-8.87,0-13.3a2,2,0,0,1,2.25-2A2.07,2.07,0,0,1,53.6,53c0,3,0,6,0,9Z"/>
          <path d="M72,25.9a3.86,3.86,0,1,1-.08,7.71A4,4,0,0,1,68,29.78,4,4,0,0,1,72,25.9Z"/>
        </g>
      </g>
    </g>
  </g>
</svg>
