<svg xmlns="http://www.w3.org/2000/svg" viewBox="0 0 61.92 62.02">
  <defs>
    <style>
      .cls-1 {
        fill: #fff;
      }
    </style>
  </defs>
  <g id="Слой_2" data-name="Слой 2">
    <g id="Слой_1-2" data-name="Слой 1">
      <g>
        <path class="cls-1" d="M0,11.64V2C0,.55.55,0,2,0H21.24c1.45,0,2,.53,2,2V21.24c0,1.48-.52,2-2,2H2c-1.45,0-2-.54-2-2Zm3.09,0c0,2.63,0,5.26,0,7.88,0,.51.14.67.66.67q7.86,0,15.74,0c.51,0,.67-.14.67-.66q0-7.89,0-15.76c0-.52-.13-.67-.65-.67q-7.87,0-15.75,0c-.51,0-.67.14-.66.66C3.1,6.38,3.09,9,3.09,11.63Z"/>
        <path class="cls-1" d="M50.35,0H60c1.33,0,1.9.56,1.9,1.87V21.39c0,1.28-.58,1.87-1.84,1.87H40.54a1.6,1.6,0,0,1-1.84-1.81V1.81c0-1.22.6-1.8,1.84-1.8ZM41.79,11.64c0,2.63,0,5.25,0,7.88,0,.52.16.66.67.66q7.86,0,15.74,0c.52,0,.66-.16.65-.67q0-7.88,0-15.76c0-.53-.16-.66-.67-.66-5.25,0-10.5,0-15.74,0-.53,0-.67.16-.66.67C41.8,6.38,41.79,9,41.79,11.64Z"/>
        <path class="cls-1" d="M0,50.35V40.67c0-1.33.56-1.91,1.88-1.91H21.35c1.28,0,1.87.58,1.87,1.85V60.18A1.6,1.6,0,0,1,21.42,62Q11.61,62,1.8,62C.58,62,0,61.42,0,60.17Zm11.61-8.5c-2.63,0-5.25,0-7.87,0-.53,0-.66.16-.66.67q0,7.89,0,15.77c0,.52.16.66.67.66q7.86,0,15.74,0c.52,0,.66-.16.65-.67q0-7.89,0-15.77c0-.52-.16-.66-.67-.66C16.85,41.87,14.23,41.85,11.61,41.85Z"/>
        <path class="cls-1" d="M29.45,3.1V6.22h4.46a1.55,1.55,0,0,1,1.7,1.6c0,.18,0,.37,0,.55V27.26c0,1.73-.48,2.21-2.21,2.21-2.72,0-5.44,0-8.16,0a3.38,3.38,0,0,1-.95-.11,1.48,1.48,0,0,1-1.06-1.52,1.51,1.51,0,0,1,1.2-1.42,5.69,5.69,0,0,1,.83-.07h7.2v-7.7h-3c0,1,0,2,0,3a1.55,1.55,0,0,1-2.26,1.46,1.5,1.5,0,0,1-.84-1.41c0-2.56,0-5.12,0-7.68a1.48,1.48,0,0,1,1.57-1.56,1.55,1.55,0,0,1,1.52,1.63c0,.46,0,.92,0,1.41h3V9.3h-.67c-1.29,0-2.58,0-3.87,0a1.43,1.43,0,0,1-1.57-1.41q-.08-3.21,0-6.43A1.46,1.46,0,0,1,27.9,0C30,0,32,0,34.05,0A1.52,1.52,0,0,1,35.6,1.55a1.5,1.5,0,0,1-1.53,1.53c-1.27,0-2.54,0-3.8,0Z"/>
        <path class="cls-1" d="M41.83,29.47v3.08h5.42a7.61,7.61,0,0,1,.83,0,1.48,1.48,0,0,1,1.43,1.49c0,1.57,0,3.14,0,4.7A1.48,1.48,0,0,1,48,40.3a1.53,1.53,0,0,1-1.54-1.61c0-1,0-2,0-3H41.82c0,.25,0,.47,0,.69,0,2.09,0,4.19,0,6.29,0,.55.11.76.71.76,3.16,0,6.31,0,9.46,0,.21,0,.41,0,.7,0,0-1.06,0-2.09,0-3.12A1.51,1.51,0,0,1,54,38.78a1.53,1.53,0,0,1,1.67,1,1.8,1.8,0,0,1,.08.61c0,1.48,0,3,0,4.43a1.51,1.51,0,0,1-1.63,1.65q-6.87,0-13.74,0a1.53,1.53,0,0,1-1.63-1.66q0-8.41,0-16.81a1.51,1.51,0,0,1,1.62-1.67q3.8,0,7.59,0a1.5,1.5,0,0,1,1.6,1.54,1.55,1.55,0,0,1-1.67,1.56c-1.75,0-3.5,0-5.25,0Z"/>
        <path class="cls-1" d="M58.84,58.93c.6,0,1.08,0,1.56,0a1.54,1.54,0,1,1,0,3.07c-.94,0-1.88,0-2.83,0a1.6,1.6,0,0,1-1.8-1.78c0-2.21,0-4.43,0-6.64v-.81H52.64v.7c0,2.26,0,4.52,0,6.78a1.56,1.56,0,0,1-2.34,1.53,1.75,1.75,0,0,1-.77-1.67V52.77H46.44v.75c0,2.23,0,4.47,0,6.71A1.58,1.58,0,0,1,44.66,62Q41,62,37.4,62c-1.1,0-1.79-.61-1.77-1.57s.66-1.5,1.76-1.51c1.77,0,3.55,0,5.32,0,.53,0,.66-.17.66-.68,0-2.23,0-4.47,0-6.7,0-1.42.54-2,2-2H56.87c1.41,0,2,.56,2,2,0,2.17,0,4.33,0,6.5Z"/>
        <path class="cls-1" d="M29.52,43.38h2.95V35.67H19.13c-1.59,0-2.11-.52-2.11-2.11,0-1.84,0-3.68,0-5.53a1.54,1.54,0,0,1,2.1-1.55,1.59,1.59,0,0,1,1,1.65v4.42H33.58c1.49,0,2,.54,2,2.05,0,3.3,0,6.59,0,9.89,0,1.5-.53,2-2,2-1.79,0-3.59,0-5.38,0-1.28,0-1.86-.57-1.87-1.86s0-2.76,0-4.15a1.57,1.57,0,1,1,3.11,0c0,.9,0,1.8,0,2.69C29.44,43.26,29.48,43.3,29.52,43.38Z"/>
        <path class="cls-1" d="M58.84,35.67h-1.1c-1.13,0-2.26,0-3.39,0a1.53,1.53,0,0,1-1.7-1.59c0-2.06,0-4.11,0-6.16A1.41,1.41,0,0,1,54,26.4c2.16-.06,4.33-.06,6.49,0A1.46,1.46,0,0,1,61.91,28a1.53,1.53,0,0,1-1.55,1.46c-1.27,0-2.53,0-3.8,0h-.79v3.08h4c1.65,0,2.15.49,2.15,2.13,0,3.39,0,6.78,0,10.17a1.56,1.56,0,0,1-1.29,1.64A1.5,1.5,0,0,1,59,45.55a3.18,3.18,0,0,1-.13-1c0-2.68,0-5.35,0-8Z"/>
        <path class="cls-1" d="M3.09,32.52h7.7V29.47H8.5a6.25,6.25,0,0,1-1,0,1.51,1.51,0,0,1-1.32-1.53,1.42,1.42,0,0,1,1.33-1.5c1.68-.06,3.36-.06,5,0a1.41,1.41,0,0,1,1.35,1.49c0,2.08,0,4.15,0,6.23a1.51,1.51,0,0,1-1.48,1.53,5.06,5.06,0,0,1-.55,0H2c-1.48,0-2-.54-2-2V28.15a1.59,1.59,0,0,1,1.52-1.78c.94,0,1.56.67,1.57,1.78s0,2.45,0,3.67Z"/>
        <path class="cls-1" d="M29.45,52.76v6.17c.49,0,1,0,1.44,0A1.54,1.54,0,1,1,30.83,62C29.89,62,29,62,28,62a1.5,1.5,0,0,1-1.67-1.54q0-4.66,0-9.33a1.46,1.46,0,0,1,1.56-1.52c3.59,0,7.18,0,10.77,0a1.49,1.49,0,0,1,1.57,1.64q0,1.49,0,3a1.53,1.53,0,1,1-3.06,0c0-.48,0-.95,0-1.47Z"/>
        <path class="cls-1" d="M6.2,11.63c0-1.24,0-2.49,0-3.73A1.51,1.51,0,0,1,7.88,6.22h7.46A1.52,1.52,0,0,1,17,7.9q0,3.74,0,7.47A1.51,1.51,0,0,1,15.34,17q-3.72,0-7.46,0a1.5,1.5,0,0,1-1.67-1.67C6.19,14.13,6.2,12.88,6.2,11.63Zm3.13-2.3v4.59h4.56V9.33Z"/>
        <path class="cls-1" d="M44.91,11.56c0-1.22,0-2.44,0-3.66a1.51,1.51,0,0,1,1.67-1.68H54A1.52,1.52,0,0,1,55.72,7.9q0,3.74,0,7.47A1.51,1.51,0,0,1,54,17q-3.72,0-7.46,0a1.5,1.5,0,0,1-1.67-1.67C44.89,14.1,44.91,12.83,44.91,11.56ZM48,9.34v4.59H52.6V9.34Z"/>
        <path class="cls-1" d="M11.54,55.8c-1.22,0-2.44,0-3.66,0a1.5,1.5,0,0,1-1.67-1.67c0-2.49,0-5,0-7.48A1.5,1.5,0,0,1,7.88,45h7.46A1.51,1.51,0,0,1,17,46.65q0,3.74,0,7.48a1.52,1.52,0,0,1-1.68,1.67C14.08,55.81,12.81,55.8,11.54,55.8Zm2.36-3.11v-4.6H9.32v4.6Z"/>
      </g>
    </g>
  </g>
</svg>
