<svg xmlns="http://www.w3.org/2000/svg" viewBox="0 0 91.4 146.21">
  <g id="Слой_2" data-name="Слой 2">
    <g id="Слой_1-2" data-name="Слой 1">
      <g>
        <path d="M3.19,59.54C.3,59.08,0,58.73,0,56V51.64c0-2.78.29-3.12,3.08-3.55V43.27L2,43.12A2,2,0,0,1,0,41.05Q0,34.53,0,28c0-1.52.83-2,3.09-2.22,0-.44.06-.89.06-1.35,0-4.13,0-8.27,0-12.4C3.21,4.79,8,0,15.24,0h64.1C86.66,0,91.4,4.77,91.4,12.12V134c0,7.43-4.73,12.16-12.14,12.16q-32,0-64,0c-7.31,0-12.09-4.77-12.09-12.09q0-36.42,0-72.84ZM7.8,73.11v61c0,4.87,2.6,7.57,7.45,7.57q32.05,0,64.1,0c4.85,0,7.46-2.71,7.47-7.58,0-4.35,0-8.7,0-13,0-36.12,0-72.23,0-108.35,0-5.17-3-8.16-8.18-8.13-21.06.14-42.13,0-63.19.07a10.79,10.79,0,0,0-2.84.28c-3.13.83-4.87,3.38-4.87,7Z"/>
        <path d="M47.26,121.34a6.35,6.35,0,0,1,6.44,6.31,6.58,6.58,0,0,1-6.38,6.45,6.36,6.36,0,0,1-6.38-6.37A6.27,6.27,0,0,1,47.26,121.34Z"/>
        <path d="M47.37,12.8c2,0,4.08,0,6.12,0,1.6,0,2.44.82,2.46,2.24a2.11,2.11,0,0,1-2.39,2.31q-6.26.07-12.52,0A2.14,2.14,0,0,1,38.64,15c0-1.45.9-2.23,2.6-2.24C43.28,12.78,45.32,12.8,47.37,12.8Z"/>
        <g>
          <path d="M45.93,72.17c1.56-3.11,3-6,4.44-8.83a4.92,4.92,0,0,1,.84-1.3,2.16,2.16,0,0,1,3.32.2,9.3,9.3,0,0,1,1,1.68c2.9,5.78,5.7,11.62,8.74,17.32,1.12,2.11-.21,3.82-2.38,3.79C53.78,85,45.7,85,37.61,85c-1.69,0-3.39,0-5.08,0-2.27-.07-3.16-1.61-2.14-3.63Q34.2,73.72,38,66.09c.53-1.07,1.15-2,2.5-2s1.87.92,2.37,1.94C43.83,68,44.82,70,45.93,72.17Zm6.86-3.62c-1.08,2.16-1.91,4.17-3,6s-1.35,3.36-.05,5.07c.05.07.06.18.12.23.29.2.58.54.88.55,2.6,0,5.2,0,8,0ZM45,80.37c-1.55-3.08-3-6-4.56-9.09-1.59,3.2-3,6.08-4.52,9.09Z"/>
          <path d="M67.64,93.21c0-3.44,0-6.69,0-9.95,0-1.84.73-2.79,2.14-2.84s2.41,1.09,2.42,2.8q0,5.93,0,11.86c0,2-.73,2.68-2.69,2.7q-6,0-12,0c-1.79,0-2.69-.86-2.67-2.33s.95-2.24,2.74-2.24Z"/>
          <path d="M27,53c0,3.48,0,6.73,0,10,0,1.84-.74,2.78-2.16,2.79a2.76,2.76,0,0,1-2.59-2.86c0-4,0-7.91,0-11.87a2.27,2.27,0,0,1,2.54-2.59q6.25,0,12.52,0c1.68,0,2.51.84,2.48,2.33S38.85,53,37.24,53c-2.92,0-5.83,0-8.74,0Z"/>
          <path d="M67.39,53H57.82a9.1,9.1,0,0,1-1.17,0,2.29,2.29,0,0,1-2-2.33,2.14,2.14,0,0,1,2.06-2.14c4.43,0,8.87-.06,13.3,0a2,2,0,0,1,2,2.2q.09,6.4,0,12.79a2.13,2.13,0,0,1-2.3,2.29,2.2,2.2,0,0,1-2.25-2.48c0-2.91,0-5.83,0-8.74Z"/>
          <path d="M27.18,93.45h9.71a7.59,7.59,0,0,1,1.17,0A2.25,2.25,0,0,1,40,95.78a2,2,0,0,1-2,2.15q-6.72.07-13.43,0a1.82,1.82,0,0,1-1.88-2c0-4.43-.05-8.86,0-13.3a2,2,0,0,1,2.25-2,2.07,2.07,0,0,1,2.21,2.21c.05,3,0,6,0,9Z"/>
          <path d="M45.52,55.77a3.86,3.86,0,1,1-.09,7.71,3.86,3.86,0,1,1,.09-7.71Z"/>
        </g>
      </g>
    </g>
  </g>
</svg>
