<svg xmlns="http://www.w3.org/2000/svg" width="192.924" height="37.064" viewBox="0 0 192.924 37.064">
  <g id="Сгруппировать_130" data-name="Сгруппировать 130" transform="translate(0)">
    <path id="Контур_104" data-name="Контур 104" d="M36.525,25.729v-12.7a6.937,6.937,0,0,1,5.1-2.5c2.071,0,2.386,2.31,2.386,6.38,0,4.513-.043,8.817-.043,8.817h4.517V17.184c0-3.539-.1-6.087-.851-7.656-2.335-5-8.911-2.918-12.122-.051C32.9,4.551,27.239,6.448,24,9.579l-.353-2.633H19.979v18.8H24.5V13.266a7.205,7.205,0,0,1,5.257-2.735c1.957,0,2.31,2.31,2.31,6.38,0,4.513-.038,8.817-.038,8.817Zm26.941-4.015c-1.621.591-7.069,1.531-7.069-1.557,0-1.642,1.591-2.288,4.679-2.288h2.407ZM68,23.9V15.372c0-5.985-.91-8.754-7.533-8.754a22.811,22.811,0,0,0-8.082,1.365l1.778,3.756c3.441-1.4,9.268-2.667,9.268,2.161-.259-.034-1.518-.034-2.777-.034-5.955,0-8.7,2.361-8.7,6.461,0,3.556,1.446,5.848,5.955,5.848a16.017,16.017,0,0,0,5.572-1.433v.987H68ZM83.738,6.6c-2.493.145-5.585,1.952-7.3,3.615l-.451-3.288H72.3v18.8h4.517V13.266c.94-.885,4.3-2.076,6.933-2.076Zm15.483.5H94.035V0H91.058L89.51,7.1H85.592v4.134h3.93s-.034,6.053-.034,7.933c0,4.785,2.025,6.976,6.469,6.976a27.574,27.574,0,0,0,3.288-.208V21.722c-.425.085-2.3.132-2.769.132-1.65,0-2.437-1.276-2.437-3.509V11.233h5.206ZM16.2,18.558a4.845,4.845,0,0,0-1.323-1.825,8.575,8.575,0,0,0-2.552-1.472,19.761,19.761,0,0,0-4.041-1.055,9.783,9.783,0,0,1-1.859-.464,3.347,3.347,0,0,1-1.042-.591,1.408,1.408,0,0,1-.425-.608,1.54,1.54,0,0,1-.081-.57,1.633,1.633,0,0,1,.119-.625,1.119,1.119,0,0,1,.459-.523,2.748,2.748,0,0,1,1.068-.332,9.256,9.256,0,0,1,1.8-.03,13.433,13.433,0,0,1,1.578.213c.578.111,1.221.259,1.876.425q.638.172,1.276.383c.328.106.655.225.974.349l1.238-3.956c-.578-.145-1.174-.281-1.774-.425s-1.212-.255-1.782-.366A18.542,18.542,0,0,0,4.369,6.9,6.5,6.5,0,0,0,2.012,7.907,4.606,4.606,0,0,0,.574,9.536a6.061,6.061,0,0,0-.3,4.5A4.555,4.555,0,0,0,1.5,15.827a8.082,8.082,0,0,0,2.488,1.5c2.127.851,4.019.851,5.925,1.518A3.73,3.73,0,0,1,11,19.4a1.638,1.638,0,0,1,.5.621,1.57,1.57,0,0,1,.128.676,1.7,1.7,0,0,1-.106.6,1.234,1.234,0,0,1-.447.566,2.654,2.654,0,0,1-1.085.391,8.3,8.3,0,0,1-1.884.055,15.964,15.964,0,0,1-1.82-.2c-.638-.115-1.319-.268-2.012-.459-.515-.14-1.038-.3-1.557-.485-.425-.149-.876-.319-1.31-.5L.128,24.717c.578.153,1.178.3,1.782.425.681.157,1.37.3,2.042.425.766.145,1.518.268,2.22.366a16.151,16.151,0,0,0,6.031-.1A6.559,6.559,0,0,0,14.636,24.7a4.679,4.679,0,0,0,1.34-1.629,5.891,5.891,0,0,0,.208-4.521" transform="translate(0.022)" fill="#1d1d1b"/>
    <path id="Контур_105" data-name="Контур 105" d="M323.466,18.731c3.556,0,4.811.872,5.028,4.964H318.4c.345-3.828,1.08-4.964,5.07-4.964M330.9,30.807a21.567,21.567,0,0,1-6.733,1.319c-4.466,0-5.763-.357-5.806-5.529h13.517c.217-8.754-1.986-10.876-8.579-10.876-6.461,0-8.617,2.424-8.617,10.042,0,7.886,2.5,9.494,9.009,9.494a28.073,28.073,0,0,0,8.294-1.319ZM245.356,42.763H242V46.1h10.047V42.763h-3.335V34.652a7.741,7.741,0,0,0,4.9,1.365c6.38,0,9.056-2.352,9.056-10.208s-3.084-10.081-8.158-10.081a10.4,10.4,0,0,0-5.793,1.735v-1.2H242V19.6h3.352Zm37.5-26.5V19.6h3.33V31.407h-3.33v3.335H292.9V31.407h-3.335V16.264Zm-7.1,15.142h-3.335V21.5c0-1.591,2.646-2.348,5.593-2.348a17.294,17.294,0,0,1,2.552.187v-3.5a22.28,22.28,0,0,0-2.254-.111c-3.126,0-5.074.944-5.9,1.931v-1.4h-6.7V19.6h3.335V31.407h-3.335v3.335H275.76Zm32.466-8.932V19.157c-.242-.055-2.4-.2-3.624-.2-4.466,0-5.848.949-5.848,6.9,0,5.649,1.382,6.193,5.848,6.193a25.163,25.163,0,0,0,6.623-1.242l1.085,3.148a31.112,31.112,0,0,1-7.877,1.319c-6.767,0-9.311-1.608-9.311-9.494s2.6-10.047,9.311-10.047c2.646,0,6.516.527,7.167.527V22.47Zm-59.51-.681a6.06,6.06,0,0,1,5.193-2.888c3.3,0,5.164,1.063,5.164,6.976,0,5.529-1.472,6.976-5.955,6.976-2.816,0-4.415-2.395-4.415-3.02Z" transform="translate(-139.057 -9.034)" fill="#B4CC38"/>
  </g>
</svg>